<?xml version="1.0" encoding="UTF-8" standalone="no"?>
<!DOCTYPE svg PUBLIC "-//W3C//DTD SVG 1.1//EN" "http://www.w3.org/Graphics/SVG/1.1/DTD/svg11.dtd">
<svg xmlns="http://www.w3.org/2000/svg" version="1.1" viewBox="0.00 0.00 1650.00 350.00">
<rect fill="#ff0000" x="9.00" y="20.00" width="59.00" height="308.00" rx="0.26"/>
<path fill="#ff0000" d="
  M 89.53 20.74
  L 238.37 173.78
  A 0.31 0.31 0.0 0 1 238.37 174.22
  L 89.53 327.26
  A 0.31 0.31 0.0 0 1 89.00 327.04
  L 89.00 20.96
  A 0.31 0.31 0.0 0 1 89.53 20.74
  Z"
/>
<path fill="#ffffff" d="
  M 1548.25 27.79
  L 1548.25 46.46
  A 0.54 0.54 0.0 0 0 1548.79 47.00
  L 1573.96 47.00
  A 0.54 0.54 0.0 0 1 1574.50 47.54
  L 1574.50 51.21
  A 0.54 0.54 0.0 0 1 1573.96 51.75
  L 1548.79 51.75
  A 0.54 0.54 0.0 0 0 1548.25 52.29
  L 1548.25 72.46
  A 0.54 0.54 0.0 0 1 1547.71 73.00
  L 1543.29 73.00
  A 0.54 0.54 0.0 0 1 1542.75 72.46
  L 1542.75 23.04
  A 0.54 0.54 0.0 0 1 1543.29 22.50
  L 1576.96 22.50
  A 0.54 0.54 0.0 0 1 1577.50 23.04
  L 1577.50 26.71
  A 0.54 0.54 0.0 0 1 1576.96 27.25
  L 1548.79 27.25
  A 0.54 0.54 0.0 0 0 1548.25 27.79
  Z"
/>
<path fill="#ffffff" d="
  M 1593.75 34.56
  L 1593.75 72.37
  Q 1593.75 73.00 1593.13 73.00
  L 1589.00 73.00
  Q 1588.25 73.00 1588.25 72.25
  L 1588.25 23.12
  Q 1588.25 22.50 1588.88 22.50
  L 1592.47 22.50
  Q 1592.98 22.50 1593.24 22.94
  L 1614.42 59.06
  A 0.36 0.36 0.0 0 0 1615.04 59.06
  L 1636.00 22.95
  Q 1636.26 22.50 1636.77 22.50
  L 1640.25 22.50
  Q 1641.00 22.50 1641.00 23.25
  L 1641.00 72.38
  Q 1641.00 73.00 1640.38 73.00
  L 1636.25 73.00
  Q 1635.50 73.00 1635.50 72.25
  L 1635.50 34.22
  A 0.24 0.24 0.0 0 0 1635.06 34.10
  L 1616.60 65.72
  A 2.28 2.28 0.0 0 1 1612.67 65.73
  L 1594.25 34.43
  Q 1593.75 33.57 1593.75 34.56
  Z"
/>
<path fill="#ffffff" d="
  M 256.47 156.99
  Q 256.15 156.86 255.90 156.60
  Q 191.98 92.51 128.03 28.46
  Q 125.53 25.96 123.06 23.42
  Q 122.65 23.00 123.24 23.00
  L 446.25 23.00
  Q 447.00 23.00 447.00 23.75
  L 447.00 178.02
  A 0.27 0.27 0.0 0 1 446.52 178.20
  L 376.89 98.95
  Q 376.56 98.57 376.06 98.57
  L 303.60 98.20
  A 0.38 0.38 0.0 0 0 303.32 98.84
  L 446.64 248.38
  Q 447.00 248.75 447.00 249.27
  L 447.00 329.50
  Q 447.00 330.00 446.50 330.00
  L 371.50 330.00
  A 0.50 0.50 0.0 0 1 371.00 329.50
  L 371.00 275.76
  A 1.02 0.98 -68.2 0 0 370.71 275.05
  L 318.08 221.43
  A 0.55 0.55 0.0 0 0 317.29 221.43
  C 282.75 257.53 248.65 294.43 213.19 329.69
  Q 212.88 330.00 212.44 330.00
  L 118.46 330.00
  A 0.37 0.36 22.5 0 1 118.20 329.38
  L 273.05 174.55
  A 0.78 0.76 45.0 0 0 273.04 173.46
  L 256.54 157.04
  A 0.29 0.24 -4.7 0 0 256.47 156.99
  Z"
/>
<rect fill="#ffffff" x="470.00" y="23.00" width="68.00" height="307.00" rx="0.53"/>
<path fill="#ffffff" d="
  M 681.00 91.45
  L 681.00 329.55
  A 0.45 0.45 0.0 0 1 680.55 330.00
  L 613.45 330.00
  A 0.45 0.45 0.0 0 1 613.00 329.55
  L 613.00 91.45
  A 0.45 0.45 0.0 0 0 612.55 91.00
  L 561.45 91.00
  A 0.45 0.45 0.0 0 1 561.00 90.55
  L 561.00 23.45
  A 0.45 0.45 0.0 0 1 561.45 23.00
  L 732.55 23.00
  A 0.45 0.45 0.0 0 1 733.00 23.45
  L 733.00 90.55
  A 0.45 0.45 0.0 0 1 732.55 91.00
  L 681.45 91.00
  A 0.45 0.45 0.0 0 0 681.00 91.45
  Z"
/>
<path fill="#ffffff" d="
  M 933.00 261.53
  L 933.00 23.47
  A 0.47 0.47 0.0 0 1 933.47 23.00
  L 1000.53 23.00
  A 0.47 0.47 0.0 0 1 1001.00 23.47
  L 1001.00 329.53
  A 0.47 0.47 0.0 0 1 1000.53 330.00
  L 756.47 330.00
  A 0.47 0.47 0.0 0 1 756.00 329.53
  L 756.00 23.47
  A 0.47 0.47 0.0 0 1 756.47 23.00
  L 823.53 23.00
  A 0.47 0.47 0.0 0 1 824.00 23.47
  L 824.00 261.53
  A 0.47 0.47 0.0 0 0 824.47 262.00
  L 932.53 262.00
  A 0.47 0.47 0.0 0 0 933.00 261.53
  Z"
/>
<path fill="#ffffff" d="
  M 1168.80 93.50
  L 1105.83 329.51
  Q 1105.70 330.00 1105.20 330.00
  L 1025.56 330.00
  Q 1024.68 330.00 1024.91 329.15
  L 1106.49 23.42
  A 0.56 0.56 0.0 0 1 1107.03 23.00
  L 1229.45 23.00
  A 0.70 0.70 0.0 0 1 1230.13 23.52
  L 1311.84 329.23
  A 0.62 0.61 82.7 0 1 1311.25 330.00
  L 1232.55 330.00
  A 0.70 0.70 0.0 0 1 1231.87 329.48
  L 1168.87 93.50
  Q 1168.83 93.37 1168.80 93.50
  Z"
/>
<path fill="#ffffff" d="
  M 1512.00 262.62
  L 1512.00 329.38
  A 0.62 0.62 0.0 0 1 1511.38 330.00
  L 1336.62 330.00
  A 0.62 0.62 0.0 0 1 1336.00 329.38
  L 1336.00 23.62
  A 0.62 0.62 0.0 0 1 1336.62 23.00
  L 1403.38 23.00
  A 0.62 0.62 0.0 0 1 1404.00 23.62
  L 1404.00 261.38
  A 0.62 0.62 0.0 0 0 1404.62 262.00
  L 1511.38 262.00
  A 0.62 0.62 0.0 0 1 1512.00 262.62
  Z"
/>
</svg>
